# xmcd CD database file
#
# Track frame offsets:
#	182
#	11722
#	26765
#	42900
#	62487
#	73827
#	94050
#	104907
#	122385
#	139680
#	152010
#	161287
#
# Disc length: 2431 seconds
#
# Revision: 0
# Processed by: cddbd v1.5.2PL0 Copyright (c) Steve Scherf et al.
# Submitted via: CDex 1.51
#
DISCID=9c097d0c
DTITLE=Mozart Jazz Trio - Swinging Mozart
DYEAR=2009
DGENRE=Jazz
TTITLE0=Sur un air de Mozart (une Petite Musique De Nuit)
TTITLE1=Marche Jazz (sonate Piano N° 8)
TTITLE2=Sonate Facile (sonate Piano N° 16)
TTITLE3=Ouverture des Noces de Figaro
TTITLE4=Alla Turca (marche Turque)
TTITLE5=Ah ! Vous Dirai-je Maman (variations Pour Piano)
TTITLE6=Valse favorite
TTITLE7=Andante Cantabile (sonate Piano N° 8)
TTITLE8=Variations (sur Un Air De Don Juan)
TTITLE9=Romance (3ème Concerto Pour Cor)
TTITLE10=Rondo (sonate N° 16)
TTITLE11=Andante Du Concerto En Ut (concerto Piano K. 467)
EXTD=YEAR: 2009
EXTT0=
EXTT1=
EXTT2=
EXTT3=
EXTT4=
EXTT5=
EXTT6=
EXTT7=
EXTT8=
EXTT9=
EXTT10=
EXTT11=
PLAYORDER=
